<svg width="6" height="11" viewBox="0 0 6 11" fill="none" xmlns="http://www.w3.org/2000/svg">
<path d="M5.92159 9.7953C5.97177 9.8449 6 9.91243 6 9.98287C6 10.0533 5.97177 10.1208 5.92159 10.1704L5.35965 10.7305C5.31155 10.7816 5.24439 10.8105 5.17411 10.8105C5.10382 10.8105 5.03666 10.7816 4.98856 10.7305L0.116631 5.8749C0.0420446 5.80066 9.39084e-05 5.69993 1.41118e-06 5.59487L1.42323e-06 5.4575C9.39389e-05 5.35244 0.0420447 5.25171 0.116631 5.17747L4.98856 0.321877C5.03666 0.270798 5.10382 0.241822 5.17411 0.241822C5.24439 0.241822 5.31155 0.270798 5.35965 0.321877L5.92159 0.881935C5.97178 0.931539 6 0.999062 6 1.0695C6 1.13994 5.97178 1.20746 5.92159 1.25707L1.63811 5.52618L5.92159 9.7953Z" fill="#474747"/>
</svg>
