<svg width="17" height="16" viewBox="0 0 17 16" fill="none" xmlns="http://www.w3.org/2000/svg">
<path fill-rule="evenodd" clip-rule="evenodd" d="M13.1017 11.0715L16.8788 14.6313C17.0474 14.8079 17.0391 15.0783 16.8599 15.2454L16.1989 15.8684C16.1102 15.9526 15.9896 16 15.8637 16C15.7378 16 15.6171 15.9526 15.5285 15.8684L11.7514 12.3085C11.6469 12.21 11.5521 12.1028 11.4681 11.9881C11.0739 11.4928 10.3602 11.4119 9.79704 11.701C8.83175 12.1965 7.74481 12.4601 6.63347 12.4598C3.54346 12.4699 0.858359 10.461 0.167823 7.62231C-0.522714 4.78365 0.965611 1.87288 3.75166 0.613257C6.53772 -0.646363 9.87794 0.0813447 11.7948 2.36555C13.4656 4.35649 13.6664 7.06678 12.4043 9.22976C12.1037 9.74495 12.1956 10.4348 12.6957 10.76C12.8431 10.849 12.9794 10.9535 13.1017 11.0715ZM1.91214 6.23014C1.91214 8.68769 4.02595 10.6799 6.63347 10.6799C7.88565 10.6799 9.08654 10.2111 9.97196 9.37662C10.8574 8.54212 11.3548 7.4103 11.3548 6.23014C11.3548 3.77258 9.241 1.78033 6.63347 1.78033C4.02595 1.78033 1.91214 3.77258 1.91214 6.23014Z" fill="white"/>
</svg>
