<svg width="28" height="28" viewBox="0 0 28 28" fill="none" xmlns="http://www.w3.org/2000/svg">
<g opacity="0.5">
<path d="M19.8334 3.50008H24.5C24.8095 3.50008 25.1062 3.623 25.325 3.84179C25.5438 4.06058 25.6667 4.35733 25.6667 4.66675V23.3334C25.6667 23.6428 25.5438 23.9396 25.325 24.1584C25.1062 24.3772 24.8095 24.5001 24.5 24.5001H3.50004C3.19062 24.5001 2.89388 24.3772 2.67508 24.1584C2.45629 23.9396 2.33337 23.6428 2.33337 23.3334V4.66675C2.33337 4.35733 2.45629 4.06058 2.67508 3.84179C2.89388 3.623 3.19062 3.50008 3.50004 3.50008H8.16671V1.16675H10.5V3.50008H17.5V1.16675H19.8334V3.50008ZM17.5 5.83342H10.5V8.16675H8.16671V5.83342H4.66671V10.5001H23.3334V5.83342H19.8334V8.16675H17.5V5.83342ZM23.3334 12.8334H4.66671V22.1667H23.3334V12.8334Z" fill="#E7E7F2"/>
</g>
</svg>
