<svg width="28" height="28" viewBox="0 0 28 28" fill="none" xmlns="http://www.w3.org/2000/svg">
<g opacity="0.5">
<path d="M24.5 23.3334C24.5 23.6428 24.3771 23.9396 24.1583 24.1584C23.9395 24.3772 23.6428 24.5001 23.3333 24.5001H4.66667C4.35725 24.5001 4.0605 24.3772 3.84171 24.1584C3.62292 23.9396 3.5 23.6428 3.5 23.3334V11.0717C3.49988 10.894 3.54039 10.7185 3.61844 10.5588C3.69648 10.399 3.81001 10.2592 3.95033 10.1501L13.2837 2.89107C13.4885 2.73176 13.7405 2.64526 14 2.64526C14.2595 2.64526 14.5115 2.73176 14.7163 2.89107L24.0497 10.1501C24.19 10.2592 24.3035 10.399 24.3816 10.5588C24.4596 10.7185 24.5001 10.894 24.5 11.0717V23.3334ZM22.1667 22.1667V11.6411L14 5.28974L5.83333 11.6411V22.1667H22.1667Z" fill="#E7E7F2"/>
</g>
</svg>
