<svg width="28" height="28" viewBox="0 0 28 28" fill="none" xmlns="http://www.w3.org/2000/svg">
<g opacity="0.5">
<path d="M23.3334 25.6667H21V23.3334C21 22.4052 20.6313 21.5149 19.9749 20.8585C19.3185 20.2022 18.4283 19.8334 17.5 19.8334H10.5C9.57176 19.8334 8.68152 20.2022 8.02515 20.8585C7.36877 21.5149 7.00002 22.4052 7.00002 23.3334V25.6667H4.66669V23.3334C4.66669 21.7863 5.28127 20.3026 6.37523 19.2086C7.46919 18.1147 8.95292 17.5001 10.5 17.5001H17.5C19.0471 17.5001 20.5308 18.1147 21.6248 19.2086C22.7188 20.3026 23.3334 21.7863 23.3334 23.3334V25.6667ZM14 15.1667C13.0808 15.1667 12.1705 14.9857 11.3212 14.6339C10.472 14.2821 9.70028 13.7665 9.05027 13.1165C8.40026 12.4665 7.88465 11.6948 7.53286 10.8455C7.18108 9.99625 7.00002 9.086 7.00002 8.16675C7.00002 7.2475 7.18108 6.33724 7.53286 5.48796C7.88465 4.63868 8.40026 3.86701 9.05027 3.217C9.70028 2.56699 10.472 2.05137 11.3212 1.69959C12.1705 1.34781 13.0808 1.16675 14 1.16675C15.8565 1.16675 17.637 1.90425 18.9498 3.217C20.2625 4.52976 21 6.31023 21 8.16675C21 10.0233 20.2625 11.8037 18.9498 13.1165C17.637 14.4293 15.8565 15.1667 14 15.1667ZM14 12.8334C15.2377 12.8334 16.4247 12.3418 17.2999 11.4666C18.175 10.5914 18.6667 9.40443 18.6667 8.16675C18.6667 6.92907 18.175 5.74209 17.2999 4.86692C16.4247 3.99175 15.2377 3.50008 14 3.50008C12.7623 3.50008 11.5754 3.99175 10.7002 4.86692C9.82502 5.74209 9.33335 6.92907 9.33335 8.16675C9.33335 9.40443 9.82502 10.5914 10.7002 11.4666C11.5754 12.3418 12.7623 12.8334 14 12.8334Z" fill="#E7E7F2"/>
</g>
</svg>
